<svg xmlns="http://www.w3.org/2000/svg" viewBox="0 0 400 400" width="400" height="400"><rect width="400" height="400" fill="#0E0C0B"/><g transform="translate(101.38,286.00) scale(0.12500,-0.12500)"><path d="M394.0 6Q394.0 0 386.0 0H6.0Q-1.0 0 -1.0 6Q-1.0 9 8.0 12L88.0 31Q169.0 54 175.0 127L252.0 1273Q260.0 1366 218.0 1372L135.0 1383Q112.0 1386 112.0 1392Q112.0 1400 129.0 1400H408.0Q426.0 1400 434.0 1376L814.0 455L1163.0 1374Q1172.0 1400 1190.0 1400H1466.0Q1474.0 1400 1474.0 1394Q1474.0 1389 1464.0 1388L1364.0 1373Q1334.0 1368 1336.0 1330L1426.0 64Q1428.0 44 1433.5 36.0Q1439.0 28 1457.0 26L1550.0 12Q1560.0 11 1560.0 6Q1560.0 0 1552.0 0H1092.0Q1083.0 0 1083.0 6Q1083.0 11 1093.0 12L1186.0 26Q1221.0 31 1220.0 64L1135.0 1252L736.0 170Q729.0 149 720.0 149Q713.0 149 704.0 170L267.0 1249L192.0 126Q189.0 90 210.5 66.5Q232.0 43 271.0 32L384.0 12Q394.0 10 394.0 6Z" fill="#F4EFE6"/></g><line x1="134.0" y1="318.0" x2="266.0" y2="318.0" stroke="#B9986A" stroke-width="4"/></svg>